<?xml version="1.0" standalone="no"?>
<!DOCTYPE svg PUBLIC "-//W3C//DTD SVG 20010904//EN"
 "http://www.w3.org/TR/2001/REC-SVG-20010904/DTD/svg10.dtd">
<svg version="1.0" xmlns="http://www.w3.org/2000/svg"
 width="1024.000000pt" height="1024.000000pt" viewBox="0 0 1024.000000 1024.000000"
 preserveAspectRatio="xMidYMid meet">
  <rect width="100%" height="100%" fill="white"/>

<g transform="translate(0.000000,1024.000000) scale(0.100000,-0.100000)"
fill="#000000" stroke="none">
<path d="M6086 7785 c-21 -7 -42 -17 -46 -22 -79 -93 -270 -324 -283 -343 -10
-14 -17 -43 -17 -68 0 -56 17 -74 300 -307 156 -128 235 -187 258 -191 70 -14
87 0 255 199 150 180 157 190 157 232 0 24 -3 51 -6 60 -7 16 -478 416 -511
433 -36 18 -69 20 -107 7z"/>
<path d="M4422 7468 c-7 -7 -12 -22 -12 -35 0 -32 -26 -93 -53 -122 -27 -30
-93 -60 -130 -61 -19 0 -31 -7 -39 -25 -15 -34 10 -61 64 -68 74 -10 158 -105
158 -179 0 -32 37 -62 64 -52 9 3 19 18 22 33 22 100 54 150 114 181 22 11 51
20 65 20 39 0 65 18 65 44 0 31 -16 42 -72 50 -84 12 -147 77 -164 168 -4 18
-11 39 -17 46 -12 15 -49 16 -65 0z"/>
<path d="M5535 7079 c-77 -45 -277 -160 -445 -256 -168 -96 -316 -185 -330
-198 -23 -23 -25 -33 -32 -182 -15 -324 -85 -647 -196 -898 -32 -73 -34 -81
-20 -105 10 -19 22 -25 48 -25 32 0 42 11 184 186 83 103 224 275 314 384
l162 196 -6 52 c-5 44 -2 57 18 87 13 20 39 40 62 49 33 13 44 13 79 0 79 -27
109 -113 64 -180 -27 -40 -60 -59 -103 -59 -25 0 -38 -8 -60 -37 -46 -62 -494
-591 -561 -665 -66 -71 -77 -103 -47 -132 29 -30 65 -19 149 45 162 122 425
231 907 374 48 14 94 32 101 40 8 7 29 55 46 107 18 51 96 270 172 486 76 216
139 403 139 415 0 18 -52 65 -231 210 -142 115 -239 187 -253 187 -11 0 -84
-37 -161 -81z"/>
<path d="M3986 6768 c-9 -12 -16 -28 -16 -34 0 -24 -43 -64 -81 -75 -48 -15
-63 -31 -55 -63 4 -17 19 -29 51 -42 51 -19 80 -50 90 -94 12 -57 76 -72 91
-22 20 65 36 84 88 107 29 13 56 31 60 40 9 25 -10 52 -47 64 -41 14 -69 42
-94 96 -22 49 -62 60 -87 23z"/>
<path d="M3792 6050 c-75 -34 -72 0 -72 -789 l0 -699 28 -53 c20 -39 41 -62
77 -84 l48 -30 899 -3 c875 -2 899 -2 936 17 46 24 72 60 79 111 4 31 -12 72
-110 281 -167 354 -255 531 -271 547 -34 34 -106 1 -106 -48 0 -9 19 -57 41
-106 154 -332 289 -640 285 -651 -4 -10 -172 -13 -861 -13 -842 0 -855 0 -875
20 -20 20 -20 33 -20 700 l0 680 270 0 c184 0 277 4 295 12 50 23 46 99 -6
117 -21 7 -134 11 -313 11 -257 0 -285 -2 -324 -20z"/>
<path d="M4200 5040 c-11 -11 -20 -31 -20 -45 0 -14 9 -34 20 -45 19 -19 33
-20 420 -20 l401 0 24 25 c30 29 31 45 4 79 l-20 26 -405 0 c-391 0 -405 -1
-424 -20z"/>
<path d="M2520 3901 c-127 -42 -212 -149 -226 -289 -18 -168 71 -331 203 -376
73 -25 197 -21 258 8 61 28 112 77 136 131 32 69 28 75 -44 75 -63 0 -64 -1
-88 -37 -34 -54 -80 -75 -154 -71 -107 6 -164 72 -173 199 -12 168 96 277 236
240 28 -8 53 -26 81 -58 l41 -46 56 6 c31 3 58 8 61 11 12 12 -50 117 -85 144
-68 53 -101 65 -192 69 -47 1 -96 -1 -110 -6z"/>
<path d="M3270 3901 c-93 -30 -155 -86 -197 -176 -25 -53 -28 -71 -28 -160 0
-89 3 -107 29 -163 35 -75 105 -143 173 -166 66 -23 180 -21 245 4 203 76 264
396 109 573 -16 18 -54 46 -83 62 -45 25 -66 29 -138 32 -47 1 -96 -1 -110 -6z
m152 -121 c45 -13 103 -75 117 -127 24 -85 8 -192 -36 -252 -35 -45 -84 -64
-154 -59 -108 8 -161 75 -167 213 -3 72 -1 85 25 134 44 85 120 117 215 91z"/>
<path d="M3782 3888 c3 -7 57 -158 119 -335 l114 -323 81 0 81 0 116 329 c64
181 117 332 117 335 0 3 -31 6 -69 6 l-69 0 -83 -247 c-45 -137 -84 -252 -87
-257 -3 -5 -44 105 -92 245 l-87 254 -73 3 c-56 2 -71 0 -68 -10z"/>
<path d="M4560 3560 l0 -340 218 2 217 3 3 58 3 57 -156 0 -155 0 0 85 0 85
140 0 140 0 0 55 0 55 -140 0 -140 0 0 80 0 80 145 0 145 0 0 60 0 60 -210 0
-210 0 0 -340z"/>
<path d="M5190 3566 l0 -336 65 0 65 0 0 120 0 121 61 -3 62 -3 52 -115 53
-115 76 -3 77 -3 -65 130 -65 129 34 27 c117 88 104 278 -23 352 -46 27 -52
28 -219 31 l-173 4 0 -336z m331 186 c32 -36 37 -77 15 -121 -20 -38 -55 -51
-141 -51 l-75 0 0 106 0 106 86 -3 c82 -4 87 -5 115 -37z"/>
<path d="M5860 3565 l0 -335 205 0 c113 0 208 0 213 0 4 0 7 26 7 58 l0 57
-147 0 -148 0 0 277 0 278 -65 0 -65 0 0 -335z"/>
<path d="M6254 3885 c3 -9 58 -106 121 -215 l115 -199 0 -121 0 -120 65 0 65
0 0 124 0 125 108 188 c60 103 114 198 121 211 12 22 11 22 -62 22 l-74 0 -77
-145 c-43 -80 -79 -145 -81 -145 -2 0 -38 65 -81 145 l-78 145 -74 0 c-63 0
-73 -2 -68 -15z"/>
<path d="M7387 3893 c-6 -10 -237 -652 -237 -659 0 -3 32 -4 72 -2 l71 3 25
73 24 73 126 -3 125 -3 25 -72 24 -73 72 0 73 0 -121 335 -121 335 -77 0 c-42
0 -79 -3 -81 -7z m123 -269 c22 -65 40 -122 40 -126 0 -4 -38 -8 -85 -8 -47 0
-85 3 -85 8 0 11 84 251 88 248 1 -2 20 -56 42 -122z"/>
<path d="M7930 3565 l0 -335 65 0 65 0 0 335 0 335 -65 0 -65 0 0 -335z"/>
</g>
</svg>
